<mxfile host="Electron" agent="Mozilla/5.0 (Macintosh; Intel Mac OS X 10_15_7) AppleWebKit/537.36 (KHTML, like Gecko) draw.io/28.0.6 Chrome/138.0.7204.100 Electron/37.2.3 Safari/537.36" version="28.0.6">
  <diagram name="Page-1" id="XtzuT8o7as32BBXsI1Gz">
    <mxGraphModel dx="939" dy="751" grid="1" gridSize="10" guides="1" tooltips="1" connect="1" arrows="1" fold="1" page="1" pageScale="1" pageWidth="850" pageHeight="1100" math="0" shadow="0">
      <root>
        <mxCell id="0" />
        <mxCell id="1" parent="0" />
        <mxCell id="CikHTcLuCy0H46KZY493-35" value="" style="rounded=1;whiteSpace=wrap;html=1;fillColor=none;dashed=1;strokeColor=#666600;" vertex="1" parent="1">
          <mxGeometry x="585" y="60" width="210" height="420" as="geometry" />
        </mxCell>
        <mxCell id="CikHTcLuCy0H46KZY493-34" value="" style="rounded=1;whiteSpace=wrap;html=1;fillColor=none;dashed=1;strokeColor=#6c8ebf;" vertex="1" parent="1">
          <mxGeometry x="110" y="60" width="450" height="420" as="geometry" />
        </mxCell>
        <mxCell id="CikHTcLuCy0H46KZY493-3" value="crm_sales_details" style="swimlane;fontStyle=0;childLayout=stackLayout;horizontal=1;startSize=30;horizontalStack=0;resizeParent=1;resizeParentMax=0;resizeLast=0;collapsible=1;marginBottom=0;whiteSpace=wrap;html=1;fillColor=#dae8fc;strokeColor=#6c8ebf;fontSize=14;" vertex="1" parent="1">
          <mxGeometry x="120" y="190" width="140" height="90" as="geometry" />
        </mxCell>
        <mxCell id="CikHTcLuCy0H46KZY493-4" value="prd_key" style="text;strokeColor=none;fillColor=none;align=left;verticalAlign=middle;spacingLeft=4;spacingRight=4;overflow=hidden;points=[[0,0.5],[1,0.5]];portConstraint=eastwest;rotatable=0;whiteSpace=wrap;html=1;fontSize=14;" vertex="1" parent="CikHTcLuCy0H46KZY493-3">
          <mxGeometry y="30" width="140" height="30" as="geometry" />
        </mxCell>
        <mxCell id="CikHTcLuCy0H46KZY493-5" value="cst_id" style="text;strokeColor=none;fillColor=none;align=left;verticalAlign=middle;spacingLeft=4;spacingRight=4;overflow=hidden;points=[[0,0.5],[1,0.5]];portConstraint=eastwest;rotatable=0;whiteSpace=wrap;html=1;fontSize=14;" vertex="1" parent="CikHTcLuCy0H46KZY493-3">
          <mxGeometry y="60" width="140" height="30" as="geometry" />
        </mxCell>
        <mxCell id="CikHTcLuCy0H46KZY493-7" value="Transactional Records about Sales &amp;amp; Orders" style="text;html=1;align=center;verticalAlign=middle;whiteSpace=wrap;rounded=0;fontSize=10;" vertex="1" parent="1">
          <mxGeometry x="105" y="160" width="170" height="20" as="geometry" />
        </mxCell>
        <mxCell id="CikHTcLuCy0H46KZY493-8" value="crm_prd_info" style="swimlane;fontStyle=0;childLayout=stackLayout;horizontal=1;startSize=30;horizontalStack=0;resizeParent=1;resizeParentMax=0;resizeLast=0;collapsible=1;marginBottom=0;whiteSpace=wrap;html=1;fillColor=#dae8fc;strokeColor=#6c8ebf;fontSize=14;" vertex="1" parent="1">
          <mxGeometry x="370" y="120" width="135" height="60" as="geometry" />
        </mxCell>
        <mxCell id="CikHTcLuCy0H46KZY493-9" value="prd_key" style="text;strokeColor=none;fillColor=none;align=left;verticalAlign=middle;spacingLeft=4;spacingRight=4;overflow=hidden;points=[[0,0.5],[1,0.5]];portConstraint=eastwest;rotatable=0;whiteSpace=wrap;html=1;fontSize=14;" vertex="1" parent="CikHTcLuCy0H46KZY493-8">
          <mxGeometry y="30" width="135" height="30" as="geometry" />
        </mxCell>
        <mxCell id="CikHTcLuCy0H46KZY493-11" value="Current &amp;amp; History Product Info" style="text;html=1;align=center;verticalAlign=middle;whiteSpace=wrap;rounded=0;fontSize=10;" vertex="1" parent="1">
          <mxGeometry x="350" y="90" width="170" height="20" as="geometry" />
        </mxCell>
        <mxCell id="CikHTcLuCy0H46KZY493-14" value="crm_cust_info" style="swimlane;fontStyle=0;childLayout=stackLayout;horizontal=1;startSize=30;horizontalStack=0;resizeParent=1;resizeParentMax=0;resizeLast=0;collapsible=1;marginBottom=0;whiteSpace=wrap;html=1;fillColor=#dae8fc;strokeColor=#6c8ebf;fontSize=14;" vertex="1" parent="1">
          <mxGeometry x="365" y="310" width="140" height="90" as="geometry" />
        </mxCell>
        <mxCell id="CikHTcLuCy0H46KZY493-15" value="cst_id" style="text;strokeColor=none;fillColor=none;align=left;verticalAlign=middle;spacingLeft=4;spacingRight=4;overflow=hidden;points=[[0,0.5],[1,0.5]];portConstraint=eastwest;rotatable=0;whiteSpace=wrap;html=1;fontSize=14;" vertex="1" parent="CikHTcLuCy0H46KZY493-14">
          <mxGeometry y="30" width="140" height="30" as="geometry" />
        </mxCell>
        <mxCell id="CikHTcLuCy0H46KZY493-16" value="cst_key" style="text;strokeColor=none;fillColor=none;align=left;verticalAlign=middle;spacingLeft=4;spacingRight=4;overflow=hidden;points=[[0,0.5],[1,0.5]];portConstraint=eastwest;rotatable=0;whiteSpace=wrap;html=1;fontSize=14;" vertex="1" parent="CikHTcLuCy0H46KZY493-14">
          <mxGeometry y="60" width="140" height="30" as="geometry" />
        </mxCell>
        <mxCell id="CikHTcLuCy0H46KZY493-17" value="Transactional Records about Sales &amp;amp; Orders" style="text;html=1;align=center;verticalAlign=middle;whiteSpace=wrap;rounded=0;fontSize=10;" vertex="1" parent="1">
          <mxGeometry x="350" y="280" width="170" height="20" as="geometry" />
        </mxCell>
        <mxCell id="CikHTcLuCy0H46KZY493-18" style="edgeStyle=orthogonalEdgeStyle;rounded=0;orthogonalLoop=1;jettySize=auto;html=1;exitX=1;exitY=0.5;exitDx=0;exitDy=0;entryX=0;entryY=0.5;entryDx=0;entryDy=0;" edge="1" parent="1" source="CikHTcLuCy0H46KZY493-5" target="CikHTcLuCy0H46KZY493-15">
          <mxGeometry relative="1" as="geometry" />
        </mxCell>
        <mxCell id="CikHTcLuCy0H46KZY493-19" style="edgeStyle=orthogonalEdgeStyle;rounded=0;orthogonalLoop=1;jettySize=auto;html=1;exitX=1;exitY=0.5;exitDx=0;exitDy=0;entryX=0;entryY=0.5;entryDx=0;entryDy=0;" edge="1" parent="1" source="CikHTcLuCy0H46KZY493-4" target="CikHTcLuCy0H46KZY493-9">
          <mxGeometry relative="1" as="geometry" />
        </mxCell>
        <mxCell id="CikHTcLuCy0H46KZY493-20" value="erp_loc_a101" style="swimlane;fontStyle=0;childLayout=stackLayout;horizontal=1;startSize=30;horizontalStack=0;resizeParent=1;resizeParentMax=0;resizeLast=0;collapsible=1;marginBottom=0;whiteSpace=wrap;html=1;fillColor=#fff2cc;strokeColor=#d6b656;fontSize=14;" vertex="1" parent="1">
          <mxGeometry x="625" y="340" width="140" height="60" as="geometry" />
        </mxCell>
        <mxCell id="CikHTcLuCy0H46KZY493-21" value="cid" style="text;strokeColor=none;fillColor=none;align=left;verticalAlign=middle;spacingLeft=4;spacingRight=4;overflow=hidden;points=[[0,0.5],[1,0.5]];portConstraint=eastwest;rotatable=0;whiteSpace=wrap;html=1;fontSize=14;" vertex="1" parent="CikHTcLuCy0H46KZY493-20">
          <mxGeometry y="30" width="140" height="30" as="geometry" />
        </mxCell>
        <mxCell id="CikHTcLuCy0H46KZY493-23" value="Location of Customers (Country)" style="text;html=1;align=center;verticalAlign=middle;whiteSpace=wrap;rounded=0;fontSize=10;" vertex="1" parent="1">
          <mxGeometry x="605" y="310" width="170" height="20" as="geometry" />
        </mxCell>
        <mxCell id="CikHTcLuCy0H46KZY493-24" value="erp_px_cat_g1v2" style="swimlane;fontStyle=0;childLayout=stackLayout;horizontal=1;startSize=30;horizontalStack=0;resizeParent=1;resizeParentMax=0;resizeLast=0;collapsible=1;marginBottom=0;whiteSpace=wrap;html=1;fillColor=#fff2cc;strokeColor=#d6b656;fontSize=14;" vertex="1" parent="1">
          <mxGeometry x="640" y="110" width="140" height="60" as="geometry" />
        </mxCell>
        <mxCell id="CikHTcLuCy0H46KZY493-25" value="id" style="text;strokeColor=none;fillColor=none;align=left;verticalAlign=middle;spacingLeft=4;spacingRight=4;overflow=hidden;points=[[0,0.5],[1,0.5]];portConstraint=eastwest;rotatable=0;whiteSpace=wrap;html=1;fontSize=14;" vertex="1" parent="CikHTcLuCy0H46KZY493-24">
          <mxGeometry y="30" width="140" height="30" as="geometry" />
        </mxCell>
        <mxCell id="CikHTcLuCy0H46KZY493-26" value="Product Categories" style="text;html=1;align=center;verticalAlign=middle;whiteSpace=wrap;rounded=0;fontSize=10;" vertex="1" parent="1">
          <mxGeometry x="625" y="80" width="170" height="20" as="geometry" />
        </mxCell>
        <mxCell id="CikHTcLuCy0H46KZY493-27" value="erp_cust_az12" style="swimlane;fontStyle=0;childLayout=stackLayout;horizontal=1;startSize=30;horizontalStack=0;resizeParent=1;resizeParentMax=0;resizeLast=0;collapsible=1;marginBottom=0;whiteSpace=wrap;html=1;fillColor=#fff2cc;strokeColor=#d6b656;fontSize=14;" vertex="1" parent="1">
          <mxGeometry x="625" y="230" width="140" height="60" as="geometry" />
        </mxCell>
        <mxCell id="CikHTcLuCy0H46KZY493-28" value="cid" style="text;strokeColor=none;fillColor=none;align=left;verticalAlign=middle;spacingLeft=4;spacingRight=4;overflow=hidden;points=[[0,0.5],[1,0.5]];portConstraint=eastwest;rotatable=0;whiteSpace=wrap;html=1;fontSize=14;" vertex="1" parent="CikHTcLuCy0H46KZY493-27">
          <mxGeometry y="30" width="140" height="30" as="geometry" />
        </mxCell>
        <mxCell id="CikHTcLuCy0H46KZY493-29" value="Extra Customer Information (Brithdate)" style="text;html=1;align=center;verticalAlign=middle;whiteSpace=wrap;rounded=0;fontSize=10;" vertex="1" parent="1">
          <mxGeometry x="610" y="210" width="190" height="10" as="geometry" />
        </mxCell>
        <mxCell id="CikHTcLuCy0H46KZY493-32" style="edgeStyle=orthogonalEdgeStyle;rounded=0;orthogonalLoop=1;jettySize=auto;html=1;exitX=0;exitY=0.5;exitDx=0;exitDy=0;entryX=1;entryY=0.5;entryDx=0;entryDy=0;" edge="1" parent="1" source="CikHTcLuCy0H46KZY493-21" target="CikHTcLuCy0H46KZY493-16">
          <mxGeometry relative="1" as="geometry" />
        </mxCell>
        <mxCell id="CikHTcLuCy0H46KZY493-33" style="edgeStyle=orthogonalEdgeStyle;rounded=0;orthogonalLoop=1;jettySize=auto;html=1;exitX=0;exitY=0.5;exitDx=0;exitDy=0;" edge="1" parent="1" source="CikHTcLuCy0H46KZY493-25" target="CikHTcLuCy0H46KZY493-9">
          <mxGeometry relative="1" as="geometry" />
        </mxCell>
        <mxCell id="CikHTcLuCy0H46KZY493-36" value="crm database" style="text;html=1;align=center;verticalAlign=middle;whiteSpace=wrap;rounded=0;fillColor=#dae8fc;strokeColor=#6c8ebf;" vertex="1" parent="1">
          <mxGeometry x="250" y="40" width="140" height="30" as="geometry" />
        </mxCell>
        <mxCell id="CikHTcLuCy0H46KZY493-37" value="erp database" style="text;html=1;align=center;verticalAlign=middle;whiteSpace=wrap;rounded=1;fillColor=#fff2cc;strokeColor=#d6b656;" vertex="1" parent="1">
          <mxGeometry x="635" y="40" width="140" height="30" as="geometry" />
        </mxCell>
        <mxCell id="CikHTcLuCy0H46KZY493-60" value="PRODUCTS" style="text;html=1;strokeColor=#b85450;fillColor=#f8cecc;align=center;verticalAlign=middle;whiteSpace=wrap;overflow=hidden;" vertex="1" parent="1">
          <mxGeometry x="370" y="180" width="135" height="20" as="geometry" />
        </mxCell>
        <mxCell id="CikHTcLuCy0H46KZY493-62" value="PRODUCTS" style="text;html=1;strokeColor=#b85450;fillColor=#f8cecc;align=center;verticalAlign=middle;whiteSpace=wrap;overflow=hidden;" vertex="1" parent="1">
          <mxGeometry x="640" y="170" width="140" height="20" as="geometry" />
        </mxCell>
        <mxCell id="CikHTcLuCy0H46KZY493-63" value="CUSTOMERS" style="text;html=1;strokeColor=#82b366;fillColor=#d5e8d4;align=center;verticalAlign=middle;whiteSpace=wrap;overflow=hidden;" vertex="1" parent="1">
          <mxGeometry x="625" y="290" width="140" height="20" as="geometry" />
        </mxCell>
        <mxCell id="CikHTcLuCy0H46KZY493-64" value="CUSTOMERS" style="text;html=1;strokeColor=#82b366;fillColor=#d5e8d4;align=center;verticalAlign=middle;whiteSpace=wrap;overflow=hidden;" vertex="1" parent="1">
          <mxGeometry x="625" y="400" width="140" height="20" as="geometry" />
        </mxCell>
        <mxCell id="CikHTcLuCy0H46KZY493-65" value="CUSTOMERS" style="text;html=1;strokeColor=#82b366;fillColor=#d5e8d4;align=center;verticalAlign=middle;whiteSpace=wrap;overflow=hidden;" vertex="1" parent="1">
          <mxGeometry x="365" y="400" width="140" height="20" as="geometry" />
        </mxCell>
        <mxCell id="CikHTcLuCy0H46KZY493-66" value="SALES" style="text;html=1;strokeColor=#9673a6;fillColor=#e1d5e7;align=center;verticalAlign=middle;whiteSpace=wrap;overflow=hidden;" vertex="1" parent="1">
          <mxGeometry x="120" y="280" width="140" height="20" as="geometry" />
        </mxCell>
        <mxCell id="CikHTcLuCy0H46KZY493-68" style="edgeStyle=orthogonalEdgeStyle;rounded=0;orthogonalLoop=1;jettySize=auto;html=1;exitX=1;exitY=0.5;exitDx=0;exitDy=0;entryX=0;entryY=0.5;entryDx=0;entryDy=0;" edge="1" parent="1" source="CikHTcLuCy0H46KZY493-16" target="CikHTcLuCy0H46KZY493-28">
          <mxGeometry relative="1" as="geometry" />
        </mxCell>
      </root>
    </mxGraphModel>
  </diagram>
</mxfile>
